<svg width="64" height="64" viewBox="0 0 64 64" fill="none" xmlns="http://www.w3.org/2000/svg">
<g clip-path="url(#clip0_25_43)">
<path d="M64 32C64 14.3269 49.6731 0 32 0C14.3269 0 0 14.3269 0 32C0 49.6731 14.3269 64 32 64C49.6731 64 64 49.6731 64 32Z" fill="white"/>
<path opacity="0.1" fill-rule="evenodd" clip-rule="evenodd" d="M32 12C15.53 12 12 15.53 12 32C12 48.47 15.53 52 32 52C48.47 52 52 48.47 52 32C52 15.53 48.47 12 32 12ZM30.8889 22.5556C26.2865 22.5556 22.5556 26.2865 22.5556 30.8889C22.5556 35.4913 26.2865 39.2222 30.8889 39.2222C35.4913 39.2222 39.2222 35.4913 39.2222 30.8889C39.2222 26.2865 35.4913 22.5556 30.8889 22.5556Z" fill="#326BFF" stroke="black" stroke-width="2.22222"/>
<path d="M12 32C12 15.53 15.53 12 32 12C48.47 12 52 15.53 52 32C52 48.47 48.47 52 32 52C15.53 52 12 48.47 12 32Z" stroke="#326BFF" stroke-width="4.44444"/>
<path d="M36.4445 36.4444L40.8889 40.8889" stroke="#326BFF" stroke-width="4.44444" stroke-linecap="round" stroke-linejoin="round"/>
<path d="M38.6667 30.8889C38.6667 35.1844 35.1844 38.6667 30.8889 38.6667C26.5933 38.6667 23.1111 35.1844 23.1111 30.8889C23.1111 26.5933 26.5933 23.1111 30.8889 23.1111C35.1844 23.1111 38.6667 26.5933 38.6667 30.8889Z" stroke="#326BFF" stroke-width="4.44444"/>
</g>
<defs>
<clipPath id="clip0_25_43">
<rect width="64" height="64" fill="white"/>
</clipPath>
</defs>
</svg>
