<svg width="358" height="64" viewBox="0 0 358 64" fill="none" xmlns="http://www.w3.org/2000/svg">
<path d="M14.832 47.384C12.272 47.384 9.824 47 7.488 46.232C5.152 45.432 3.312 44.408 1.968 43.16L3.744 39.416C5.024 40.536 6.656 41.464 8.64 42.2C10.624 42.936 12.688 43.304 14.832 43.304C16.784 43.304 18.368 43.08 19.584 42.632C20.8 42.184 21.696 41.576 22.272 40.808C22.848 40.008 23.136 39.112 23.136 38.12C23.136 36.968 22.752 36.04 21.984 35.336C21.248 34.632 20.272 34.072 19.056 33.656C17.872 33.208 16.56 32.824 15.12 32.504C13.68 32.184 12.224 31.816 10.752 31.4C9.312 30.952 7.984 30.392 6.768 29.72C5.584 29.048 4.624 28.152 3.888 27.032C3.152 25.88 2.784 24.408 2.784 22.616C2.784 20.888 3.232 19.304 4.128 17.864C5.056 16.392 6.464 15.224 8.352 14.36C10.272 13.464 12.704 13.016 15.648 13.016C17.6 13.016 19.536 13.272 21.456 13.784C23.376 14.296 25.04 15.032 26.448 15.992L24.864 19.832C23.424 18.872 21.904 18.184 20.304 17.768C18.704 17.32 17.152 17.096 15.648 17.096C13.76 17.096 12.208 17.336 10.992 17.816C9.776 18.296 8.88 18.936 8.304 19.736C7.76 20.536 7.488 21.432 7.488 22.424C7.488 23.608 7.856 24.552 8.592 25.256C9.36 25.96 10.336 26.52 11.52 26.936C12.736 27.352 14.064 27.736 15.504 28.088C16.944 28.408 18.384 28.776 19.824 29.192C21.296 29.608 22.624 30.152 23.808 30.824C25.024 31.496 26 32.392 26.736 33.512C27.472 34.632 27.84 36.072 27.84 37.832C27.84 39.528 27.376 41.112 26.448 42.584C25.52 44.024 24.08 45.192 22.128 46.088C20.208 46.952 17.776 47.384 14.832 47.384ZM44.5085 47.288C41.7885 47.288 39.3885 46.728 37.3085 45.608C35.2605 44.488 33.6605 42.952 32.5085 41C31.3885 39.048 30.8285 36.808 30.8285 34.28C30.8285 31.752 31.3725 29.512 32.4605 27.56C33.5805 25.608 35.1005 24.088 37.0205 23C38.9725 21.88 41.1645 21.32 43.5965 21.32C46.0605 21.32 48.2365 21.864 50.1245 22.952C52.0125 24.04 53.4845 25.576 54.5405 27.56C55.6285 29.512 56.1725 31.8 56.1725 34.424C56.1725 34.616 56.1565 34.84 56.1245 35.096C56.1245 35.352 56.1085 35.592 56.0765 35.816H34.4285V32.504H53.6765L51.8045 33.656C51.8365 32.024 51.5005 30.568 50.7965 29.288C50.0925 28.008 49.1165 27.016 47.8685 26.312C46.6525 25.576 45.2285 25.208 43.5965 25.208C41.9965 25.208 40.5725 25.576 39.3245 26.312C38.0765 27.016 37.1005 28.024 36.3965 29.336C35.6925 30.616 35.3405 32.088 35.3405 33.752V34.52C35.3405 36.216 35.7245 37.736 36.4925 39.08C37.2925 40.392 38.3965 41.416 39.8045 42.152C41.2125 42.888 42.8285 43.256 44.6525 43.256C46.1565 43.256 47.5165 43 48.7325 42.488C49.9805 41.976 51.0685 41.208 51.9965 40.184L54.5405 43.16C53.3885 44.504 51.9485 45.528 50.2205 46.232C48.5245 46.936 46.6205 47.288 44.5085 47.288ZM76.66 47V41.624L76.42 40.616V31.448C76.42 29.496 75.844 27.992 74.692 26.936C73.572 25.848 71.876 25.304 69.604 25.304C68.1 25.304 66.628 25.56 65.188 26.072C63.748 26.552 62.532 27.208 61.54 28.04L59.62 24.584C60.932 23.528 62.5 22.728 64.324 22.184C66.18 21.608 68.116 21.32 70.132 21.32C73.62 21.32 76.308 22.168 78.196 23.864C80.084 25.56 81.028 28.152 81.028 31.64V47H76.66ZM68.308 47.288C66.42 47.288 64.756 46.968 63.316 46.328C61.908 45.688 60.82 44.808 60.052 43.688C59.284 42.536 58.9 41.24 58.9 39.8C58.9 38.424 59.22 37.176 59.86 36.056C60.532 34.936 61.604 34.04 63.076 33.368C64.58 32.696 66.596 32.36 69.124 32.36H77.188V35.672H69.316C67.012 35.672 65.46 36.056 64.66 36.824C63.86 37.592 63.46 38.52 63.46 39.608C63.46 40.856 63.956 41.864 64.948 42.632C65.94 43.368 67.316 43.736 69.076 43.736C70.804 43.736 72.308 43.352 73.588 42.584C74.9 41.816 75.844 40.696 76.42 39.224L77.332 42.392C76.724 43.896 75.652 45.096 74.116 45.992C72.58 46.856 70.644 47.288 68.308 47.288ZM88.5555 47V21.56H92.9715V28.472L92.5395 26.744C93.2435 24.984 94.4275 23.64 96.0915 22.712C97.7555 21.784 99.8035 21.32 102.236 21.32V25.784C102.044 25.752 101.852 25.736 101.66 25.736C101.5 25.736 101.34 25.736 101.18 25.736C98.7155 25.736 96.7635 26.472 95.3235 27.944C93.8835 29.416 93.1635 31.544 93.1635 34.328V47H88.5555ZM117.769 47.288C115.177 47.288 112.857 46.728 110.809 45.608C108.793 44.488 107.209 42.952 106.057 41C104.905 39.048 104.329 36.808 104.329 34.28C104.329 31.752 104.905 29.512 106.057 27.56C107.209 25.608 108.793 24.088 110.809 23C112.857 21.88 115.177 21.32 117.769 21.32C120.073 21.32 122.121 21.784 123.913 22.712C125.737 23.608 127.145 24.952 128.137 26.744L124.633 29C123.801 27.752 122.777 26.84 121.561 26.264C120.377 25.656 119.097 25.352 117.721 25.352C116.057 25.352 114.569 25.72 113.257 26.456C111.945 27.192 110.905 28.232 110.137 29.576C109.369 30.888 108.985 32.456 108.985 34.28C108.985 36.104 109.369 37.688 110.137 39.032C110.905 40.376 111.945 41.416 113.257 42.152C114.569 42.888 116.057 43.256 117.721 43.256C119.097 43.256 120.377 42.968 121.561 42.392C122.777 41.784 123.801 40.856 124.633 39.608L128.137 41.816C127.145 43.576 125.737 44.936 123.913 45.896C122.121 46.824 120.073 47.288 117.769 47.288ZM146.358 21.32C148.438 21.32 150.262 21.72 151.83 22.52C153.43 23.32 154.678 24.536 155.574 26.168C156.47 27.8 156.918 29.864 156.918 32.36V47H152.31V32.888C152.31 30.424 151.702 28.568 150.486 27.32C149.302 26.072 147.622 25.448 145.446 25.448C143.814 25.448 142.39 25.768 141.174 26.408C139.958 27.048 139.014 27.992 138.342 29.24C137.702 30.488 137.382 32.04 137.382 33.896V47H132.774V11.384H137.382V28.424L136.47 26.6C137.302 24.936 138.582 23.64 140.31 22.712C142.038 21.784 144.054 21.32 146.358 21.32Z" fill="black"/>
<path d="M165.118 47V13.4H169.918V42.824H188.11V47H165.118ZM202.946 47.288C200.226 47.288 197.826 46.728 195.746 45.608C193.698 44.488 192.098 42.952 190.946 41C189.826 39.048 189.266 36.808 189.266 34.28C189.266 31.752 189.81 29.512 190.898 27.56C192.018 25.608 193.538 24.088 195.458 23C197.41 21.88 199.602 21.32 202.034 21.32C204.498 21.32 206.674 21.864 208.562 22.952C210.45 24.04 211.922 25.576 212.978 27.56C214.066 29.512 214.61 31.8 214.61 34.424C214.61 34.616 214.594 34.84 214.562 35.096C214.562 35.352 214.546 35.592 214.514 35.816H192.866V32.504H212.114L210.242 33.656C210.274 32.024 209.938 30.568 209.234 29.288C208.53 28.008 207.554 27.016 206.306 26.312C205.09 25.576 203.666 25.208 202.034 25.208C200.434 25.208 199.01 25.576 197.762 26.312C196.514 27.016 195.538 28.024 194.834 29.336C194.13 30.616 193.778 32.088 193.778 33.752V34.52C193.778 36.216 194.162 37.736 194.93 39.08C195.73 40.392 196.834 41.416 198.242 42.152C199.65 42.888 201.266 43.256 203.09 43.256C204.594 43.256 205.954 43 207.17 42.488C208.418 41.976 209.506 41.208 210.434 40.184L212.978 43.16C211.826 44.504 210.386 45.528 208.658 46.232C206.962 46.936 205.058 47.288 202.946 47.288ZM235.098 47V41.624L234.858 40.616V31.448C234.858 29.496 234.282 27.992 233.13 26.936C232.01 25.848 230.314 25.304 228.042 25.304C226.538 25.304 225.066 25.56 223.626 26.072C222.186 26.552 220.97 27.208 219.978 28.04L218.058 24.584C219.37 23.528 220.938 22.728 222.762 22.184C224.618 21.608 226.554 21.32 228.57 21.32C232.058 21.32 234.746 22.168 236.634 23.864C238.522 25.56 239.466 28.152 239.466 31.64V47H235.098ZM226.746 47.288C224.858 47.288 223.194 46.968 221.754 46.328C220.346 45.688 219.258 44.808 218.49 43.688C217.722 42.536 217.338 41.24 217.338 39.8C217.338 38.424 217.658 37.176 218.298 36.056C218.97 34.936 220.042 34.04 221.514 33.368C223.018 32.696 225.034 32.36 227.562 32.36H235.626V35.672H227.754C225.45 35.672 223.898 36.056 223.098 36.824C222.298 37.592 221.898 38.52 221.898 39.608C221.898 40.856 222.394 41.864 223.386 42.632C224.378 43.368 225.754 43.736 227.514 43.736C229.242 43.736 230.746 43.352 232.026 42.584C233.338 41.816 234.282 40.696 234.858 39.224L235.77 42.392C235.162 43.896 234.09 45.096 232.554 45.992C231.018 46.856 229.082 47.288 226.746 47.288ZM246.993 47V21.56H251.409V28.472L250.977 26.744C251.681 24.984 252.865 23.64 254.529 22.712C256.193 21.784 258.241 21.32 260.673 21.32V25.784C260.481 25.752 260.289 25.736 260.097 25.736C259.937 25.736 259.777 25.736 259.617 25.736C257.153 25.736 255.201 26.472 253.761 27.944C252.321 29.416 251.601 31.544 251.601 34.328V47H246.993ZM278.936 21.32C281.016 21.32 282.84 21.72 284.408 22.52C286.008 23.32 287.256 24.536 288.152 26.168C289.048 27.8 289.496 29.864 289.496 32.36V47H284.888V32.888C284.888 30.424 284.28 28.568 283.064 27.32C281.88 26.072 280.2 25.448 278.024 25.448C276.392 25.448 274.968 25.768 273.752 26.408C272.536 27.048 271.592 27.992 270.92 29.24C270.28 30.488 269.96 32.04 269.96 33.896V47H265.352V21.56H269.768V28.424L269.048 26.6C269.88 24.936 271.16 23.64 272.888 22.712C274.616 21.784 276.632 21.32 278.936 21.32Z" fill="#326BFF"/>
<g clip-path="url(#clip0_2001_432)">
<path d="M358 32C358 14.3269 343.673 0 326 0C308.327 0 294 14.3269 294 32C294 49.6731 308.327 64 326 64C343.673 64 358 49.6731 358 32Z" fill="white"/>
<path opacity="0.1" fill-rule="evenodd" clip-rule="evenodd" d="M326 12C309.53 12 306 15.53 306 32C306 48.47 309.53 52 326 52C342.47 52 346 48.47 346 32C346 15.53 342.47 12 326 12ZM324.889 22.5556C320.287 22.5556 316.556 26.2865 316.556 30.8889C316.556 35.4913 320.287 39.2222 324.889 39.2222C329.491 39.2222 333.222 35.4913 333.222 30.8889C333.222 26.2865 329.491 22.5556 324.889 22.5556Z" fill="#326BFF" stroke="black" stroke-width="2.22222"/>
<path d="M306 32C306 15.53 309.53 12 326 12C342.47 12 346 15.53 346 32C346 48.47 342.47 52 326 52C309.53 52 306 48.47 306 32Z" stroke="#326BFF" stroke-width="4.44444"/>
<path d="M330.444 36.4444L334.889 40.8889" stroke="#326BFF" stroke-width="4.44444" stroke-linecap="round" stroke-linejoin="round"/>
<path d="M332.667 30.8889C332.667 35.1844 329.184 38.6667 324.889 38.6667C320.593 38.6667 317.111 35.1844 317.111 30.8889C317.111 26.5933 320.593 23.1111 324.889 23.1111C329.184 23.1111 332.667 26.5933 332.667 30.8889Z" stroke="#326BFF" stroke-width="4.44444"/>
</g>
<defs>
<clipPath id="clip0_2001_432">
<rect width="64" height="64" fill="white" transform="translate(294)"/>
</clipPath>
</defs>
</svg>
